<?xml version="1.0" standalone="no"?>
<!DOCTYPE svg PUBLIC "-//W3C//DTD SVG 20010904//EN"
 "http://www.w3.org/TR/2001/REC-SVG-20010904/DTD/svg10.dtd">
<svg version="1.0" xmlns="http://www.w3.org/2000/svg"
 width="1563.000000pt" height="1563.000000pt" viewBox="0 0 1563.000000 1563.000000"
 preserveAspectRatio="xMidYMid meet">
<metadata>
Created by potrace 1.14, written by Peter Selinger 2001-2017
</metadata>
<g transform="translate(0.000000,1563.000000) scale(0.100000,-0.100000)"
fill="#000000" stroke="none">
<path d="M7798 13725 c-2 -1 -91 -5 -198 -9 -107 -3 -224 -8 -260 -10 -96 -7
-194 -17 -200 -21 -3 -1 -41 -6 -85 -10 -44 -4 -82 -8 -85 -10 -3 -1 -32 -6
-65 -10 -32 -3 -62 -8 -66 -10 -3 -3 -25 -7 -48 -10 -24 -3 -52 -7 -64 -10
-12 -3 -33 -7 -47 -9 -49 -9 -246 -55 -325 -75 -44 -12 -87 -23 -95 -25 -376
-95 -955 -331 -1325 -541 -27 -16 -66 -37 -85 -48 -82 -45 -305 -188 -430
-276 -394 -276 -817 -662 -1105 -1006 -27 -33 -56 -66 -63 -74 -8 -8 -32 -39
-55 -70 -23 -31 -44 -58 -47 -61 -42 -41 -234 -316 -342 -490 -301 -482 -510
-954 -682 -1538 -37 -126 -120 -490 -131 -577 -1 -11 -7 -47 -14 -80 -6 -33
-13 -80 -16 -105 -3 -25 -10 -79 -15 -120 -15 -115 -18 -148 -25 -250 -4 -52
-8 -115 -10 -140 -6 -61 -5 -604 0 -660 2 -25 7 -83 10 -130 3 -47 8 -101 11
-120 2 -19 7 -60 9 -90 3 -30 7 -66 9 -80 3 -14 8 -50 11 -80 3 -30 10 -75 15
-100 4 -25 14 -74 20 -110 62 -348 171 -738 308 -1095 27 -72 59 -151 70 -175
11 -25 38 -85 60 -135 128 -289 351 -675 560 -970 73 -103 236 -317 267 -351
5 -6 33 -37 60 -70 507 -596 1177 -1117 1870 -1454 236 -115 288 -137 500
-219 183 -71 435 -154 565 -186 8 -2 58 -15 110 -28 104 -27 268 -66 303 -72
12 -2 49 -9 82 -14 33 -6 78 -13 100 -16 22 -4 47 -8 55 -10 8 -2 38 -7 65
-10 28 -3 64 -8 80 -10 17 -2 53 -6 80 -10 28 -3 64 -8 80 -10 17 -2 73 -7
125 -10 52 -4 115 -8 140 -11 57 -5 609 -5 673 0 27 3 92 7 145 11 54 3 108 8
122 10 14 3 48 7 75 10 105 12 281 37 315 45 19 5 53 11 75 14 22 2 63 10 90
16 28 7 61 14 74 16 288 56 791 216 1121 359 77 33 436 210 485 238 11 7 56
32 100 56 123 68 335 205 495 319 80 58 147 107 150 111 3 3 23 19 45 36 22
16 42 32 45 35 3 3 25 21 50 40 41 32 121 98 209 175 55 48 238 224 305 294
33 35 75 78 91 95 17 17 59 65 95 106 36 41 75 86 88 100 90 99 375 487 467
636 17 27 39 63 50 80 84 131 302 540 349 654 11 25 34 77 51 115 18 39 45
104 60 145 15 41 35 93 44 115 26 59 115 332 155 475 46 165 101 406 126 555
12 66 23 131 26 145 6 32 10 62 18 135 15 129 17 151 21 165 2 8 7 67 10 130
4 63 9 131 11 150 4 44 4 555 -1 635 -8 147 -25 337 -31 370 -2 11 -6 40 -10
65 -3 25 -7 63 -10 85 -3 22 -12 76 -20 120 -8 44 -17 98 -20 120 -2 22 -11
67 -20 100 -8 33 -17 76 -20 95 -3 19 -7 42 -10 50 -3 8 -8 24 -10 35 -53 261
-206 716 -351 1043 -57 130 -198 408 -262 517 -26 44 -50 87 -54 95 -4 8 -34
57 -67 109 -33 51 -60 97 -60 102 0 5 -4 9 -9 9 -5 0 -12 8 -16 19 -3 10 -13
28 -23 39 -9 12 -37 51 -62 88 -50 74 -276 373 -294 389 -6 6 -33 37 -61 70
-164 198 -429 463 -630 631 -38 32 -74 64 -80 70 -14 16 -241 193 -300 234
-27 19 -55 40 -62 45 -52 44 -338 227 -478 305 -22 12 -74 41 -115 65 -141 79
-470 233 -657 306 -13 5 -33 13 -45 18 -276 111 -810 261 -1088 305 -39 6 -83
14 -120 21 -14 3 -43 7 -65 10 -22 2 -78 9 -125 15 -210 26 -244 28 -505 35
-110 3 -208 8 -217 9 -9 2 -18 3 -20 1z"/>
</g>
</svg>
